<mxfile host="app.diagrams.net" modified="2023-10-30T16:06:26.914Z" agent="Mozilla/5.0 (Windows NT 10.0; Win64; x64) AppleWebKit/537.36 (KHTML, like Gecko) Chrome/118.0.0.0 Safari/537.36" etag="OlcIKwarjqWtTS-B-8gt" version="22.0.8" type="device">
  <diagram name="Сторінка-1" id="E6WoBWxyuY81QPfrP97D">
    <mxGraphModel dx="1838" dy="906" grid="1" gridSize="10" guides="1" tooltips="1" connect="1" arrows="1" fold="1" page="1" pageScale="1" pageWidth="827" pageHeight="1169" math="0" shadow="0">
      <root>
        <mxCell id="0" />
        <mxCell id="1" parent="0" />
        <mxCell id="DQpNsj_APu9t1mE65Ug2-15" value="" style="rounded=0;whiteSpace=wrap;html=1;rotation=90;direction=south;strokeColor=#B0B0B0;" vertex="1" parent="1">
          <mxGeometry x="640" y="75" width="390" height="240" as="geometry" />
        </mxCell>
        <mxCell id="DQpNsj_APu9t1mE65Ug2-87" value="" style="rounded=0;whiteSpace=wrap;html=1;" vertex="1" parent="1">
          <mxGeometry x="735" y="10" width="200" height="230" as="geometry" />
        </mxCell>
        <mxCell id="DQpNsj_APu9t1mE65Ug2-1" value="" style="strokeWidth=1;shadow=0;dashed=0;align=center;html=1;shape=mxgraph.mockup.forms.rrect;rSize=0;strokeColor=#999999;fillColor=#ffffff;" vertex="1" parent="1">
          <mxGeometry width="240" height="390" as="geometry" />
        </mxCell>
        <mxCell id="DQpNsj_APu9t1mE65Ug2-2" value="Авторизація" style="strokeWidth=1;shadow=0;dashed=0;align=center;html=1;shape=mxgraph.mockup.forms.anchor;fontSize=12;fontColor=#666666;align=left;resizeWidth=1;spacingLeft=0;" vertex="1" parent="DQpNsj_APu9t1mE65Ug2-1">
          <mxGeometry width="70" height="20" relative="1" as="geometry">
            <mxPoint x="85" y="10" as="offset" />
          </mxGeometry>
        </mxCell>
        <mxCell id="DQpNsj_APu9t1mE65Ug2-3" value="" style="shape=line;strokeColor=#ddeeff;strokeWidth=2;html=1;resizeWidth=1;" vertex="1" parent="DQpNsj_APu9t1mE65Ug2-1">
          <mxGeometry width="216" height="10" relative="1" as="geometry">
            <mxPoint x="10" y="30" as="offset" />
          </mxGeometry>
        </mxCell>
        <mxCell id="DQpNsj_APu9t1mE65Ug2-4" value="Електронна пошта:" style="strokeWidth=1;shadow=0;dashed=0;align=center;html=1;shape=mxgraph.mockup.forms.anchor;fontSize=12;fontColor=#666666;align=left;resizeWidth=1;spacingLeft=0;" vertex="1" parent="DQpNsj_APu9t1mE65Ug2-1">
          <mxGeometry width="120" height="20" relative="1" as="geometry">
            <mxPoint x="60" y="90" as="offset" />
          </mxGeometry>
        </mxCell>
        <mxCell id="DQpNsj_APu9t1mE65Ug2-5" value="johndoe@gmail.com" style="strokeWidth=1;shadow=0;dashed=0;align=center;html=1;shape=mxgraph.mockup.forms.rrect;rSize=0;strokeColor=#999999;fontColor=#666666;align=left;spacingLeft=5;resizeWidth=1;" vertex="1" parent="DQpNsj_APu9t1mE65Ug2-1">
          <mxGeometry width="180" height="25" relative="1" as="geometry">
            <mxPoint x="30" y="110" as="offset" />
          </mxGeometry>
        </mxCell>
        <mxCell id="DQpNsj_APu9t1mE65Ug2-6" value="Пароль:" style="strokeWidth=1;shadow=0;dashed=0;align=center;html=1;shape=mxgraph.mockup.forms.anchor;fontSize=12;fontColor=#666666;align=left;resizeWidth=1;spacingLeft=0;" vertex="1" parent="DQpNsj_APu9t1mE65Ug2-1">
          <mxGeometry width="50" height="20" relative="1" as="geometry">
            <mxPoint x="95" y="150" as="offset" />
          </mxGeometry>
        </mxCell>
        <mxCell id="DQpNsj_APu9t1mE65Ug2-7" value="********" style="strokeWidth=1;shadow=0;dashed=0;align=center;html=1;shape=mxgraph.mockup.forms.rrect;rSize=0;strokeColor=#999999;fontColor=#666666;align=left;spacingLeft=5;resizeWidth=1;" vertex="1" parent="DQpNsj_APu9t1mE65Ug2-1">
          <mxGeometry width="180" height="25" relative="1" as="geometry">
            <mxPoint x="30" y="170" as="offset" />
          </mxGeometry>
        </mxCell>
        <mxCell id="DQpNsj_APu9t1mE65Ug2-8" value="Вхід" style="strokeWidth=1;shadow=0;dashed=0;align=center;html=1;shape=mxgraph.mockup.forms.rrect;rSize=5;strokeColor=none;fontColor=#ffffff;fillColor=#66bbff;fontSize=16;fontStyle=1;" vertex="1" parent="DQpNsj_APu9t1mE65Ug2-1">
          <mxGeometry y="1" width="80" height="30" relative="1" as="geometry">
            <mxPoint x="80" y="-180" as="offset" />
          </mxGeometry>
        </mxCell>
        <mxCell id="DQpNsj_APu9t1mE65Ug2-16" style="edgeStyle=orthogonalEdgeStyle;rounded=0;orthogonalLoop=1;jettySize=auto;html=1;" edge="1" parent="1" source="DQpNsj_APu9t1mE65Ug2-8">
          <mxGeometry relative="1" as="geometry">
            <mxPoint x="460" y="42" as="targetPoint" />
            <Array as="points">
              <mxPoint x="270" y="225" />
              <mxPoint x="270" y="42" />
            </Array>
          </mxGeometry>
        </mxCell>
        <mxCell id="DQpNsj_APu9t1mE65Ug2-26" value="&lt;font style=&quot;font-size: 15px;&quot;&gt;Звичайний користувач&lt;/font&gt;" style="text;html=1;align=center;verticalAlign=middle;resizable=0;points=[];autosize=1;strokeColor=none;fillColor=none;" vertex="1" parent="1">
          <mxGeometry x="280" y="10" width="180" height="30" as="geometry" />
        </mxCell>
        <mxCell id="DQpNsj_APu9t1mE65Ug2-81" value="" style="rounded=0;whiteSpace=wrap;html=1;rotation=90;direction=south;strokeColor=#B0B0B0;" vertex="1" parent="1">
          <mxGeometry x="930" y="522" width="390" height="240" as="geometry" />
        </mxCell>
        <mxCell id="DQpNsj_APu9t1mE65Ug2-82" value="" style="rounded=0;whiteSpace=wrap;html=1;rotation=90;direction=south;strokeColor=#B0B0B0;" vertex="1" parent="1">
          <mxGeometry x="230" y="520" width="390" height="240" as="geometry" />
        </mxCell>
        <mxCell id="DQpNsj_APu9t1mE65Ug2-83" value="" style="rounded=0;whiteSpace=wrap;html=1;rotation=90;direction=south;strokeColor=#B0B0B0;" vertex="1" parent="1">
          <mxGeometry x="-75" y="520" width="390" height="240" as="geometry" />
        </mxCell>
        <mxCell id="DQpNsj_APu9t1mE65Ug2-84" value="" style="rounded=0;whiteSpace=wrap;html=1;rotation=90;direction=south;strokeColor=#B0B0B0;" vertex="1" parent="1">
          <mxGeometry x="900" y="75" width="390" height="240" as="geometry" />
        </mxCell>
        <mxCell id="DQpNsj_APu9t1mE65Ug2-86" value="&lt;font style=&quot;font-size: 20px;&quot;&gt;Обкладинка&lt;/font&gt;" style="rounded=0;whiteSpace=wrap;html=1;" vertex="1" parent="1">
          <mxGeometry x="735" y="11" width="200" height="105" as="geometry" />
        </mxCell>
        <mxCell id="DQpNsj_APu9t1mE65Ug2-88" value="" style="group" vertex="1" connectable="0" parent="1">
          <mxGeometry x="745" y="330" width="180" height="40" as="geometry" />
        </mxCell>
        <mxCell id="DQpNsj_APu9t1mE65Ug2-89" value="Курси" style="rounded=1;whiteSpace=wrap;html=1;arcSize=0;fillColor=#F7F7F7;fontColor=#000000;" vertex="1" parent="DQpNsj_APu9t1mE65Ug2-88">
          <mxGeometry width="60" height="40" as="geometry" />
        </mxCell>
        <mxCell id="DQpNsj_APu9t1mE65Ug2-90" value="Мій курс" style="rounded=1;whiteSpace=wrap;html=1;arcSize=0;fillColor=#99CCFF;fontColor=#000000;" vertex="1" parent="DQpNsj_APu9t1mE65Ug2-88">
          <mxGeometry x="60" width="60" height="40" as="geometry" />
        </mxCell>
        <mxCell id="DQpNsj_APu9t1mE65Ug2-91" value="Профіль" style="rounded=1;whiteSpace=wrap;html=1;arcSize=0;fillColor=#F7F7F7;fontColor=#000000;" vertex="1" parent="DQpNsj_APu9t1mE65Ug2-88">
          <mxGeometry x="120" width="60" height="40" as="geometry" />
        </mxCell>
        <mxCell id="DQpNsj_APu9t1mE65Ug2-92" value="&lt;font style=&quot;font-size: 15px;&quot;&gt;Сьогодняшня вправа&lt;/font&gt;" style="rounded=0;whiteSpace=wrap;html=1;" vertex="1" parent="1">
          <mxGeometry x="735" y="116" width="200" height="64" as="geometry" />
        </mxCell>
        <mxCell id="DQpNsj_APu9t1mE65Ug2-155" style="edgeStyle=orthogonalEdgeStyle;rounded=0;orthogonalLoop=1;jettySize=auto;html=1;entryX=1;entryY=0.5;entryDx=0;entryDy=0;" edge="1" parent="1">
          <mxGeometry relative="1" as="geometry">
            <mxPoint x="931.9999999999995" y="209.52941176470586" as="sourcePoint" />
            <mxPoint x="1001.9999999999995" y="642" as="targetPoint" />
            <Array as="points">
              <mxPoint x="967" y="210" />
              <mxPoint x="967" y="642" />
            </Array>
          </mxGeometry>
        </mxCell>
        <mxCell id="DQpNsj_APu9t1mE65Ug2-94" value="&lt;font style=&quot;font-size: 15px;&quot;&gt;Консультація&lt;/font&gt;" style="rounded=0;whiteSpace=wrap;html=1;" vertex="1" parent="1">
          <mxGeometry x="735" y="180" width="200" height="59" as="geometry" />
        </mxCell>
        <mxCell id="DQpNsj_APu9t1mE65Ug2-95" style="edgeStyle=orthogonalEdgeStyle;rounded=0;orthogonalLoop=1;jettySize=auto;html=1;entryX=0.75;entryY=0;entryDx=0;entryDy=0;" edge="1" parent="1" source="DQpNsj_APu9t1mE65Ug2-91" target="DQpNsj_APu9t1mE65Ug2-84">
          <mxGeometry relative="1" as="geometry">
            <Array as="points">
              <mxPoint x="895" y="410" />
              <mxPoint x="1035" y="410" />
            </Array>
          </mxGeometry>
        </mxCell>
        <mxCell id="DQpNsj_APu9t1mE65Ug2-96" value="" style="verticalLabelPosition=bottom;verticalAlign=top;html=1;shadow=0;dashed=0;strokeWidth=1;shape=mxgraph.android.contact_badge_normal;sketch=0;" vertex="1" parent="1">
          <mxGeometry x="1010" y="11" width="170" height="170" as="geometry" />
        </mxCell>
        <mxCell id="DQpNsj_APu9t1mE65Ug2-97" value="&lt;font style=&quot;font-size: 16px;&quot;&gt;ПІБ&lt;/font&gt;" style="rounded=0;whiteSpace=wrap;html=1;" vertex="1" parent="1">
          <mxGeometry x="1010" y="190" width="170" height="30" as="geometry" />
        </mxCell>
        <mxCell id="DQpNsj_APu9t1mE65Ug2-98" value="&lt;span style=&quot;font-size: 16px;&quot;&gt;Вік&lt;/span&gt;" style="rounded=0;whiteSpace=wrap;html=1;" vertex="1" parent="1">
          <mxGeometry x="1010" y="220" width="170" height="30" as="geometry" />
        </mxCell>
        <mxCell id="DQpNsj_APu9t1mE65Ug2-99" value="&lt;span style=&quot;font-size: 16px;&quot;&gt;Обраний курс&lt;/span&gt;" style="rounded=0;whiteSpace=wrap;html=1;" vertex="1" parent="1">
          <mxGeometry x="1010" y="250" width="170" height="60" as="geometry" />
        </mxCell>
        <mxCell id="DQpNsj_APu9t1mE65Ug2-100" value="" style="group" vertex="1" connectable="0" parent="1">
          <mxGeometry x="1005" y="330" width="180" height="40" as="geometry" />
        </mxCell>
        <mxCell id="DQpNsj_APu9t1mE65Ug2-101" value="Курси" style="rounded=1;whiteSpace=wrap;html=1;arcSize=0;fillColor=#F7F7F7;fontColor=#000000;" vertex="1" parent="DQpNsj_APu9t1mE65Ug2-100">
          <mxGeometry width="60" height="40" as="geometry" />
        </mxCell>
        <mxCell id="DQpNsj_APu9t1mE65Ug2-102" value="Мій курс" style="rounded=1;whiteSpace=wrap;html=1;arcSize=0;fillColor=#F7F7F7;fontColor=#000000;" vertex="1" parent="DQpNsj_APu9t1mE65Ug2-100">
          <mxGeometry x="60" width="60" height="40" as="geometry" />
        </mxCell>
        <mxCell id="DQpNsj_APu9t1mE65Ug2-103" value="Профіль" style="rounded=1;whiteSpace=wrap;html=1;arcSize=0;fillColor=#99CCFF;fontColor=#000000;" vertex="1" parent="DQpNsj_APu9t1mE65Ug2-100">
          <mxGeometry x="120" width="60" height="40" as="geometry" />
        </mxCell>
        <mxCell id="DQpNsj_APu9t1mE65Ug2-104" style="edgeStyle=orthogonalEdgeStyle;rounded=0;orthogonalLoop=1;jettySize=auto;html=1;entryX=0.5;entryY=1;entryDx=0;entryDy=0;" edge="1" parent="1" source="DQpNsj_APu9t1mE65Ug2-8" target="DQpNsj_APu9t1mE65Ug2-83">
          <mxGeometry relative="1" as="geometry" />
        </mxCell>
        <mxCell id="DQpNsj_APu9t1mE65Ug2-105" value="&lt;font style=&quot;font-size: 15px;&quot;&gt;Користувач - психолог&lt;/font&gt;" style="text;html=1;align=center;verticalAlign=middle;resizable=0;points=[];autosize=1;strokeColor=none;fillColor=none;" vertex="1" parent="1">
          <mxGeometry x="130" y="400" width="180" height="30" as="geometry" />
        </mxCell>
        <mxCell id="DQpNsj_APu9t1mE65Ug2-107" value="" style="group" vertex="1" connectable="0" parent="1">
          <mxGeometry x="30" y="770" width="200" height="40" as="geometry" />
        </mxCell>
        <mxCell id="DQpNsj_APu9t1mE65Ug2-131" value="&lt;font style=&quot;font-size: 16px;&quot;&gt;Рейтинг&lt;/font&gt;" style="rounded=0;whiteSpace=wrap;html=1;" vertex="1" parent="DQpNsj_APu9t1mE65Ug2-107">
          <mxGeometry x="-20" y="-20" width="220" height="30" as="geometry" />
        </mxCell>
        <mxCell id="DQpNsj_APu9t1mE65Ug2-108" value="Мої курси" style="rounded=1;whiteSpace=wrap;html=1;arcSize=0;fillColor=#99CCFF;fontColor=#000000;" vertex="1" parent="DQpNsj_APu9t1mE65Ug2-107">
          <mxGeometry width="60" height="40" as="geometry" />
        </mxCell>
        <mxCell id="DQpNsj_APu9t1mE65Ug2-109" value="Сворення курсу" style="rounded=1;whiteSpace=wrap;html=1;arcSize=0;fillColor=#F7F7F7;fontColor=#000000;" vertex="1" parent="DQpNsj_APu9t1mE65Ug2-107">
          <mxGeometry x="60" width="60" height="40" as="geometry" />
        </mxCell>
        <mxCell id="DQpNsj_APu9t1mE65Ug2-110" value="Профіль" style="rounded=1;whiteSpace=wrap;html=1;arcSize=0;fillColor=#F7F7F7;fontColor=#000000;" vertex="1" parent="DQpNsj_APu9t1mE65Ug2-107">
          <mxGeometry x="120" width="60" height="40" as="geometry" />
        </mxCell>
        <mxCell id="DQpNsj_APu9t1mE65Ug2-14" value="" style="rounded=0;whiteSpace=wrap;html=1;rotation=90;direction=south;strokeColor=#B0B0B0;" vertex="1" parent="1">
          <mxGeometry x="385" y="75" width="390" height="240" as="geometry" />
        </mxCell>
        <mxCell id="DQpNsj_APu9t1mE65Ug2-17" value="&lt;b&gt;&lt;font style=&quot;font-size: 16px;&quot;&gt;Курс 1&lt;/font&gt;&lt;/b&gt;" style="rounded=0;whiteSpace=wrap;html=1;" vertex="1" parent="1">
          <mxGeometry x="480" y="20" width="91" height="70" as="geometry" />
        </mxCell>
        <mxCell id="DQpNsj_APu9t1mE65Ug2-18" value="&lt;b style=&quot;border-color: var(--border-color);&quot;&gt;&lt;font style=&quot;border-color: var(--border-color); font-size: 16px;&quot;&gt;Курс 2&lt;/font&gt;&lt;/b&gt;" style="rounded=0;whiteSpace=wrap;html=1;" vertex="1" parent="1">
          <mxGeometry x="590" y="20" width="91" height="70" as="geometry" />
        </mxCell>
        <mxCell id="DQpNsj_APu9t1mE65Ug2-19" value="&lt;b style=&quot;border-color: var(--border-color);&quot;&gt;&lt;font style=&quot;border-color: var(--border-color); font-size: 16px;&quot;&gt;Курс 3&lt;/font&gt;&lt;/b&gt;" style="rounded=0;whiteSpace=wrap;html=1;" vertex="1" parent="1">
          <mxGeometry x="480" y="110" width="91" height="70" as="geometry" />
        </mxCell>
        <mxCell id="DQpNsj_APu9t1mE65Ug2-20" value="&lt;b style=&quot;border-color: var(--border-color);&quot;&gt;&lt;font style=&quot;border-color: var(--border-color); font-size: 16px;&quot;&gt;Курс 4&lt;/font&gt;&lt;/b&gt;" style="rounded=0;whiteSpace=wrap;html=1;" vertex="1" parent="1">
          <mxGeometry x="590" y="110" width="91" height="70" as="geometry" />
        </mxCell>
        <mxCell id="DQpNsj_APu9t1mE65Ug2-21" value="&lt;b style=&quot;border-color: var(--border-color);&quot;&gt;&lt;font style=&quot;border-color: var(--border-color); font-size: 16px;&quot;&gt;Курс 6&lt;/font&gt;&lt;/b&gt;" style="rounded=0;whiteSpace=wrap;html=1;" vertex="1" parent="1">
          <mxGeometry x="590" y="200" width="91" height="70" as="geometry" />
        </mxCell>
        <mxCell id="DQpNsj_APu9t1mE65Ug2-22" value="&lt;b style=&quot;border-color: var(--border-color);&quot;&gt;&lt;font style=&quot;border-color: var(--border-color); font-size: 16px;&quot;&gt;Курс 5&lt;/font&gt;&lt;/b&gt;" style="rounded=0;whiteSpace=wrap;html=1;" vertex="1" parent="1">
          <mxGeometry x="480" y="200" width="91" height="70" as="geometry" />
        </mxCell>
        <mxCell id="DQpNsj_APu9t1mE65Ug2-123" value="&lt;b style=&quot;border-color: var(--border-color);&quot;&gt;&lt;font style=&quot;border-color: var(--border-color); font-size: 16px;&quot;&gt;Курс 8&lt;/font&gt;&lt;/b&gt;" style="rounded=0;whiteSpace=wrap;html=1;" vertex="1" parent="1">
          <mxGeometry x="589.5" y="290" width="91" height="70" as="geometry" />
        </mxCell>
        <mxCell id="DQpNsj_APu9t1mE65Ug2-124" value="&lt;b style=&quot;border-color: var(--border-color);&quot;&gt;&lt;font style=&quot;border-color: var(--border-color); font-size: 16px;&quot;&gt;Курс 7&lt;/font&gt;&lt;/b&gt;" style="rounded=0;whiteSpace=wrap;html=1;" vertex="1" parent="1">
          <mxGeometry x="479.5" y="290" width="91" height="70" as="geometry" />
        </mxCell>
        <mxCell id="DQpNsj_APu9t1mE65Ug2-75" value="" style="group" vertex="1" connectable="0" parent="1">
          <mxGeometry x="490" y="330" width="190.5" height="40" as="geometry" />
        </mxCell>
        <mxCell id="DQpNsj_APu9t1mE65Ug2-73" value="Мій курс" style="rounded=1;whiteSpace=wrap;html=1;arcSize=0;fillColor=#F7F7F7;fontColor=#000000;" vertex="1" parent="DQpNsj_APu9t1mE65Ug2-75">
          <mxGeometry x="60" width="60" height="40" as="geometry" />
        </mxCell>
        <mxCell id="DQpNsj_APu9t1mE65Ug2-74" value="Профіль" style="rounded=1;whiteSpace=wrap;html=1;arcSize=0;fillColor=#F7F7F7;fontColor=#000000;" vertex="1" parent="DQpNsj_APu9t1mE65Ug2-75">
          <mxGeometry x="120" width="60" height="40" as="geometry" />
        </mxCell>
        <mxCell id="DQpNsj_APu9t1mE65Ug2-72" value="Курси" style="rounded=1;whiteSpace=wrap;html=1;arcSize=0;fillColor=#99CCFF;fontColor=#000000;" vertex="1" parent="DQpNsj_APu9t1mE65Ug2-75">
          <mxGeometry width="60" height="40" as="geometry" />
        </mxCell>
        <mxCell id="DQpNsj_APu9t1mE65Ug2-125" value="&lt;font style=&quot;font-size: 16px;&quot;&gt;Курс 1&lt;/font&gt;" style="rounded=0;whiteSpace=wrap;html=1;" vertex="1" parent="1">
          <mxGeometry x="10" y="470" width="220" height="60" as="geometry" />
        </mxCell>
        <mxCell id="DQpNsj_APu9t1mE65Ug2-126" value="&lt;font style=&quot;font-size: 16px;&quot;&gt;Курс 2&lt;/font&gt;" style="rounded=0;whiteSpace=wrap;html=1;" vertex="1" parent="1">
          <mxGeometry x="10" y="584.5" width="220" height="60" as="geometry" />
        </mxCell>
        <mxCell id="DQpNsj_APu9t1mE65Ug2-127" value="&lt;font style=&quot;font-size: 16px;&quot;&gt;Курс 3&lt;/font&gt;" style="rounded=0;whiteSpace=wrap;html=1;" vertex="1" parent="1">
          <mxGeometry x="10" y="690" width="220" height="60" as="geometry" />
        </mxCell>
        <mxCell id="DQpNsj_APu9t1mE65Ug2-129" value="&lt;font style=&quot;font-size: 16px;&quot;&gt;Рейтинг&lt;/font&gt;" style="rounded=0;whiteSpace=wrap;html=1;" vertex="1" parent="1">
          <mxGeometry x="10" y="530" width="220" height="30" as="geometry" />
        </mxCell>
        <mxCell id="DQpNsj_APu9t1mE65Ug2-130" value="&lt;font style=&quot;font-size: 16px;&quot;&gt;Рейтинг&lt;/font&gt;" style="rounded=0;whiteSpace=wrap;html=1;" vertex="1" parent="1">
          <mxGeometry x="10" y="644.5" width="220" height="30" as="geometry" />
        </mxCell>
        <mxCell id="DQpNsj_APu9t1mE65Ug2-85" style="edgeStyle=orthogonalEdgeStyle;rounded=0;orthogonalLoop=1;jettySize=auto;html=1;entryX=0.75;entryY=0;entryDx=0;entryDy=0;" edge="1" parent="1" source="DQpNsj_APu9t1mE65Ug2-73" target="DQpNsj_APu9t1mE65Ug2-15">
          <mxGeometry relative="1" as="geometry">
            <Array as="points">
              <mxPoint x="580" y="410" />
              <mxPoint x="775" y="410" />
            </Array>
          </mxGeometry>
        </mxCell>
        <mxCell id="DQpNsj_APu9t1mE65Ug2-132" style="edgeStyle=orthogonalEdgeStyle;rounded=0;orthogonalLoop=1;jettySize=auto;html=1;entryX=0.75;entryY=0;entryDx=0;entryDy=0;" edge="1" parent="1" source="DQpNsj_APu9t1mE65Ug2-109" target="DQpNsj_APu9t1mE65Ug2-82">
          <mxGeometry relative="1" as="geometry">
            <Array as="points">
              <mxPoint x="120" y="855" />
              <mxPoint x="365" y="855" />
            </Array>
          </mxGeometry>
        </mxCell>
        <mxCell id="DQpNsj_APu9t1mE65Ug2-133" value="&lt;font style=&quot;font-size: 15px;&quot;&gt;Додати обкладинку&lt;/font&gt;" style="rounded=0;whiteSpace=wrap;html=1;" vertex="1" parent="1">
          <mxGeometry x="320" y="460" width="210" height="130" as="geometry" />
        </mxCell>
        <mxCell id="DQpNsj_APu9t1mE65Ug2-135" value="Ввести назву курсу" style="strokeWidth=1;shadow=0;dashed=0;align=center;html=1;shape=mxgraph.mockup.forms.rrect;rSize=0;strokeColor=#999999;fontColor=#666666;align=left;spacingLeft=5;resizeWidth=1;" vertex="1" parent="1">
          <mxGeometry x="320" y="600" width="210" height="25" as="geometry" />
        </mxCell>
        <mxCell id="DQpNsj_APu9t1mE65Ug2-136" value="Ввести опис курсу" style="strokeWidth=1;shadow=0;dashed=0;align=center;html=1;shape=mxgraph.mockup.forms.rrect;rSize=0;strokeColor=#999999;fontColor=#666666;align=left;spacingLeft=5;resizeWidth=1;" vertex="1" parent="1">
          <mxGeometry x="320" y="640" width="210" height="25" as="geometry" />
        </mxCell>
        <mxCell id="DQpNsj_APu9t1mE65Ug2-137" value="Додати вправу" style="strokeWidth=1;shadow=0;dashed=0;align=center;html=1;shape=mxgraph.mockup.forms.rrect;rSize=0;strokeColor=#999999;fontColor=#666666;align=left;spacingLeft=5;resizeWidth=1;" vertex="1" parent="1">
          <mxGeometry x="320" y="680" width="210" height="25" as="geometry" />
        </mxCell>
        <mxCell id="DQpNsj_APu9t1mE65Ug2-139" value="" style="group" vertex="1" connectable="0" parent="1">
          <mxGeometry x="330" y="770" width="200" height="40" as="geometry" />
        </mxCell>
        <mxCell id="DQpNsj_APu9t1mE65Ug2-141" value="Мої курси" style="rounded=1;whiteSpace=wrap;html=1;arcSize=0;fillColor=#F7F7F7;fontColor=#000000;" vertex="1" parent="DQpNsj_APu9t1mE65Ug2-139">
          <mxGeometry width="60" height="40" as="geometry" />
        </mxCell>
        <mxCell id="DQpNsj_APu9t1mE65Ug2-142" value="Сворення курсу" style="rounded=1;whiteSpace=wrap;html=1;arcSize=0;fillColor=#99CCFF;fontColor=#000000;" vertex="1" parent="DQpNsj_APu9t1mE65Ug2-139">
          <mxGeometry x="60" width="60" height="40" as="geometry" />
        </mxCell>
        <mxCell id="DQpNsj_APu9t1mE65Ug2-143" value="Профіль" style="rounded=1;whiteSpace=wrap;html=1;arcSize=0;fillColor=#F7F7F7;fontColor=#000000;" vertex="1" parent="DQpNsj_APu9t1mE65Ug2-139">
          <mxGeometry x="120" width="60" height="40" as="geometry" />
        </mxCell>
        <mxCell id="DQpNsj_APu9t1mE65Ug2-144" value="" style="rounded=0;whiteSpace=wrap;html=1;rotation=90;direction=south;strokeColor=#B0B0B0;" vertex="1" parent="1">
          <mxGeometry x="510" y="516" width="390" height="240" as="geometry" />
        </mxCell>
        <mxCell id="DQpNsj_APu9t1mE65Ug2-145" value="" style="verticalLabelPosition=bottom;verticalAlign=top;html=1;shadow=0;dashed=0;strokeWidth=1;shape=mxgraph.android.contact_badge_normal;sketch=0;" vertex="1" parent="1">
          <mxGeometry x="620" y="452" width="170" height="170" as="geometry" />
        </mxCell>
        <mxCell id="DQpNsj_APu9t1mE65Ug2-146" value="&lt;font style=&quot;font-size: 16px;&quot;&gt;ПІБ&lt;/font&gt;" style="rounded=0;whiteSpace=wrap;html=1;" vertex="1" parent="1">
          <mxGeometry x="620" y="631" width="170" height="30" as="geometry" />
        </mxCell>
        <mxCell id="DQpNsj_APu9t1mE65Ug2-147" value="&lt;span style=&quot;font-size: 16px;&quot;&gt;Вік&lt;/span&gt;" style="rounded=0;whiteSpace=wrap;html=1;" vertex="1" parent="1">
          <mxGeometry x="620" y="661" width="170" height="30" as="geometry" />
        </mxCell>
        <mxCell id="DQpNsj_APu9t1mE65Ug2-148" value="&lt;span style=&quot;font-size: 16px;&quot;&gt;Середній рейтинг курсів&lt;/span&gt;" style="rounded=0;whiteSpace=wrap;html=1;" vertex="1" parent="1">
          <mxGeometry x="620" y="721" width="170" height="41" as="geometry" />
        </mxCell>
        <mxCell id="DQpNsj_APu9t1mE65Ug2-149" value="" style="group" vertex="1" connectable="0" parent="1">
          <mxGeometry x="615" y="771" width="180" height="40" as="geometry" />
        </mxCell>
        <mxCell id="DQpNsj_APu9t1mE65Ug2-150" value="Курси" style="rounded=1;whiteSpace=wrap;html=1;arcSize=0;fillColor=#F7F7F7;fontColor=#000000;" vertex="1" parent="DQpNsj_APu9t1mE65Ug2-149">
          <mxGeometry width="60" height="40" as="geometry" />
        </mxCell>
        <mxCell id="DQpNsj_APu9t1mE65Ug2-151" value="Сворення курсу" style="rounded=1;whiteSpace=wrap;html=1;arcSize=0;fillColor=#F7F7F7;fontColor=#000000;" vertex="1" parent="DQpNsj_APu9t1mE65Ug2-149">
          <mxGeometry x="60" width="60" height="40" as="geometry" />
        </mxCell>
        <mxCell id="DQpNsj_APu9t1mE65Ug2-152" value="Профіль" style="rounded=1;whiteSpace=wrap;html=1;arcSize=0;fillColor=#99CCFF;fontColor=#000000;" vertex="1" parent="DQpNsj_APu9t1mE65Ug2-149">
          <mxGeometry x="120" width="60" height="40" as="geometry" />
        </mxCell>
        <mxCell id="DQpNsj_APu9t1mE65Ug2-153" style="edgeStyle=orthogonalEdgeStyle;rounded=0;orthogonalLoop=1;jettySize=auto;html=1;entryX=0.75;entryY=0;entryDx=0;entryDy=0;" edge="1" parent="1" source="DQpNsj_APu9t1mE65Ug2-143" target="DQpNsj_APu9t1mE65Ug2-144">
          <mxGeometry relative="1" as="geometry">
            <Array as="points">
              <mxPoint x="480" y="859" />
              <mxPoint x="645" y="859" />
            </Array>
          </mxGeometry>
        </mxCell>
        <mxCell id="DQpNsj_APu9t1mE65Ug2-154" value="&lt;span style=&quot;font-size: 16px;&quot;&gt;Стаж&lt;/span&gt;" style="rounded=0;whiteSpace=wrap;html=1;" vertex="1" parent="1">
          <mxGeometry x="620" y="691" width="170" height="30" as="geometry" />
        </mxCell>
        <mxCell id="DQpNsj_APu9t1mE65Ug2-156" value="" style="verticalLabelPosition=bottom;verticalAlign=top;html=1;shadow=0;dashed=0;strokeWidth=1;shape=mxgraph.android.contact_badge_normal;sketch=0;" vertex="1" parent="1">
          <mxGeometry x="1060.25" y="460.5" width="129.5" height="129.5" as="geometry" />
        </mxCell>
        <mxCell id="DQpNsj_APu9t1mE65Ug2-157" value="" style="verticalLabelPosition=bottom;verticalAlign=top;html=1;shadow=0;dashed=0;strokeWidth=1;shape=mxgraph.android.contact_badge_normal;sketch=0;" vertex="1" parent="1">
          <mxGeometry x="1060.25" y="651" width="129.25" height="129.25" as="geometry" />
        </mxCell>
        <mxCell id="DQpNsj_APu9t1mE65Ug2-158" value="&lt;font style=&quot;font-size: 16px;&quot;&gt;ПІБ користувача&lt;/font&gt;" style="rounded=0;whiteSpace=wrap;html=1;" vertex="1" parent="1">
          <mxGeometry x="1040" y="597.5" width="170" height="30" as="geometry" />
        </mxCell>
        <mxCell id="DQpNsj_APu9t1mE65Ug2-160" value="&lt;font style=&quot;font-size: 16px;&quot;&gt;ПІБ психолога&lt;/font&gt;" style="rounded=0;whiteSpace=wrap;html=1;" vertex="1" parent="1">
          <mxGeometry x="1039.88" y="792" width="170" height="30" as="geometry" />
        </mxCell>
      </root>
    </mxGraphModel>
  </diagram>
</mxfile>
